<?xml version="1.0" encoding="utf-8"?>
<!-- Generator: Adobe Illustrator 25.2.0, SVG Export Plug-In . SVG Version: 6.00 Build 0)  -->
<svg version="1.1" id="Layer_1" xmlns="http://www.w3.org/2000/svg" xmlns:xlink="http://www.w3.org/1999/xlink" x="0px" y="0px"
	 viewBox="0 0 1164.2 562" style="enable-background:new 0 0 1164.2 562;" xml:space="preserve">
<style type="text/css">
	.st0{fill:#ECF0F1;}
	.st1{fill:#95A0B7;}
	.st2{fill:#5D7AB5;}
	.st3{fill:#FFFFFF;}
	.st4{fill:#D8DDE6;}
	.st5{fill:#CCEBFF;}
</style>
<g>
	<g>
		<path class="st0" d="M1153,176.2c63.4,231.2-143,362.8-599.2,330.3C185.5,480.2,3.6,372.5,0.1,298
			c-6.9-150.8,254.7-152.7,375.7-174.9C525,95.8,654,57.3,826.6,12.7C1028.6-39.5,1126.8,80.5,1153,176.2z"/>
	</g>
</g>
<g>
	<g>
		<g>
			<path class="st0" d="M292.6,220.4c0,0-31.3,229.6,295.6,211.8H292.6L292.6,220.4z"/>
		</g>
	</g>
</g>
<g>
	<g>
		<g>
			<polygon class="st0" points="214.8,449.7 214.8,464.3 790.7,464.3 			"/>
		</g>
	</g>
</g>
<g>
	<g>
		<path class="st1" d="M1159.7,473.3H136.8c-1.3,0-2.4-1.1-2.4-2.4c0-1.3,1.1-2.4,2.4-2.4h1022.8c1.3,0,2.4,1.1,2.4,2.4
			C1162.1,472.2,1161,473.3,1159.7,473.3z"/>
	</g>
</g>
<g>
	<g>
		<rect x="265.4" y="346.7" class="st0" width="4.8" height="42.7"/>
	</g>
</g>
<g>
	<g>
		<rect x="306.4" y="366" class="st0" width="38.2" height="4.8"/>
	</g>
</g>
<g>
	<g>
		<g>
			<path class="st0" d="M510.7,428.9c-1.7,0-3.4-0.7-4.9-1.7c-1.5-1.2-2.5-3.2-2.7-5.2c-0.2-2,0.5-4.2,1.7-5.7
				c1.2-1.5,3.2-2.5,5.2-2.7c2-0.2,4.2,0.5,5.7,1.7c3.2,2.7,3.7,7.6,1,11.1c-1.2,1.5-3.2,2.5-5.2,2.7
				C511.2,428.9,511,428.9,510.7,428.9z M510.7,415.6c-0.2,0-0.2,0-0.5,0c-1.5,0.2-2.7,0.7-3.7,2l0,0c-1,1-1.2,2.5-1.2,3.9
				s0.7,2.7,2,3.7c1,1,2.5,1.2,3.9,1.2c1.5-0.2,2.7-0.7,3.7-2c2-2.2,1.5-5.7-0.7-7.6C513.2,416.1,512,415.6,510.7,415.6z"/>
		</g>
	</g>
</g>
<g>
	<g>
		<g>
			<circle class="st0" cx="547.2" cy="420.1" r="6.7"/>
		</g>
	</g>
</g>
<g>
	<g>
		<g>
			<path class="st0" d="M282.8,272.4c0,0,10.1,165.8,64.6,165.8h-64.6V272.4z"/>
		</g>
	</g>
</g>
<g>
	
		<ellipse transform="matrix(0.3408 -0.9401 0.9401 0.3408 -127.1142 935.4591)" class="st2" cx="603.5" cy="558.4" rx="3.8" ry="1.2"/>
</g>
<g>
	<g>
		<path class="st0" d="M927.3,123.3v9.9c0,0.8,0.6,1.5,1.4,1.7l4.5,1c0.4,1.2,0.9,2.4,1.5,3.5l-2.5,3.9c-0.4,0.7-0.3,1.6,0.2,2.2
			l7,7c0.6,0.6,1.5,0.7,2.2,0.2l3.9-2.5c1.1,0.6,2.3,1.1,3.5,1.5l1,4.5c0.2,0.8,0.9,1.4,1.7,1.4h9.9c0.8,0,1.5-0.6,1.7-1.4l1-4.5
			c1.2-0.4,2.4-0.9,3.5-1.5l3.9,2.5c0.7,0.4,1.6,0.3,2.2-0.2l7-7c0.6-0.6,0.7-1.5,0.2-2.2l-2.5-3.9c0.6-1.1,1.1-2.3,1.5-3.5l4.5-1
			c0.8-0.2,1.4-0.9,1.4-1.7v-9.9c0-0.8-0.6-1.5-1.4-1.7l-4.5-1c-0.4-1.2-0.9-2.4-1.5-3.5l2.5-3.9c0.4-0.7,0.3-1.6-0.2-2.2l-7-7
			c-0.6-0.6-1.5-0.7-2.2-0.2l-3.9,2.5c-1.1-0.6-2.3-1.1-3.5-1.5l-1-4.5c-0.2-0.8-0.9-1.4-1.7-1.4h-9.9c-0.8,0-1.5,0.6-1.7,1.4
			l-1,4.5c-1.2,0.4-2.4,0.9-3.5,1.5l-3.9-2.5c-0.7-0.4-1.6-0.3-2.2,0.2l-7,7c-0.6,0.6-0.7,1.5-0.2,2.2l2.5,3.9
			c-0.6,1.1-1.1,2.3-1.5,3.5l-4.5,1C927.9,121.7,927.3,122.5,927.3,123.3z"/>
	</g>
	<g>
		<circle class="st0" cx="1025" cy="273.5" r="13.1"/>
	</g>
	<g>
		<g>
			<path class="st3" d="M900.2,227.6v18.3c0,1.5,1.1,2.8,2.5,3.2l8.3,1.8c0.7,2.2,1.6,4.4,2.7,6.5l-4.6,7.2c-0.8,1.3-0.6,3,0.4,4
				l13,13c1.1,1.1,2.8,1.3,4,0.4l7.2-4.6c2.1,1.1,4.2,2,6.5,2.7l1.8,8.3c0.3,1.5,1.6,2.5,3.2,2.5h18.3c1.5,0,2.8-1.1,3.2-2.5
				l1.8-8.3c2.2-0.7,4.4-1.6,6.5-2.7l7.2,4.6c1.3,0.8,3,0.6,4-0.4l13-13c1.1-1.1,1.3-2.8,0.4-4l-4.6-7.2c1.1-2.1,2-4.2,2.7-6.5
				l8.3-1.8c1.5-0.3,2.5-1.6,2.5-3.2v-18.3c0-1.5-1.1-2.8-2.5-3.2l-8.3-1.8c-0.7-2.2-1.6-4.4-2.7-6.5l4.6-7.2c0.8-1.3,0.6-3-0.4-4
				l-13-13c-1.1-1.1-2.8-1.3-4-0.4l-7.2,4.6c-2.1-1.1-4.2-2-6.5-2.7l-1.8-8.3c-0.3-1.5-1.6-2.5-3.2-2.5h-18.3
				c-1.5,0-2.8,1.1-3.2,2.5l-1.8,8.3c-2.2,0.7-4.4,1.6-6.5,2.7l-7.2-4.6c-1.3-0.8-3-0.6-4,0.4l-13,13c-1.1,1.1-1.3,2.8-0.4,4
				l4.6,7.2c-1.1,2.1-2,4.2-2.7,6.5l-8.3,1.8C901.3,224.8,900.2,226.1,900.2,227.6z"/>
			<path class="st4" d="M963.6,292.6h-18.3c-2.3,0-4.3-1.6-4.7-3.8l-1.6-7.4c-1.7-0.6-3.4-1.3-5-2.1l-6.4,4.1
				c-1.9,1.2-4.5,1-6.1-0.7l-13-13c-1.6-1.6-1.9-4.1-0.7-6.1l4.1-6.4c-0.8-1.6-1.5-3.3-2.1-5l-7.4-1.6c-2.2-0.5-3.8-2.5-3.8-4.7
				v-18.3c0-2.3,1.6-4.3,3.8-4.7l7.4-1.6c0.6-1.7,1.3-3.4,2.1-5l-4.1-6.4c-1.2-1.9-1-4.5,0.7-6.1l13-13c1.6-1.6,4.2-1.9,6.1-0.7
				l6.4,4.1c1.6-0.8,3.3-1.5,5-2.1l1.6-7.4c0.5-2.2,2.5-3.8,4.7-3.8h18.3c2.3,0,4.3,1.6,4.7,3.8l1.6,7.4c1.7,0.6,3.4,1.3,5,2.1
				l6.4-4.1c1.9-1.2,4.5-1,6.1,0.7l13,13c1.6,1.6,1.9,4.2,0.7,6.1l-4.1,6.4c0.8,1.6,1.5,3.3,2.1,5l7.4,1.6c2.2,0.5,3.8,2.5,3.8,4.7
				v18.3c0,2.3-1.6,4.3-3.8,4.7l-7.4,1.6c-0.6,1.7-1.3,3.4-2.1,5l4.1,6.4c1.2,1.9,0.9,4.5-0.7,6.1l-13,13c-1.6,1.6-4.1,1.9-6.1,0.7
				l-6.4-4.1c-1.6,0.8-3.3,1.5-5,2.1l-1.6,7.4C967.8,291,965.8,292.6,963.6,292.6z M933.7,275.5l0.8,0.4c2,1,4.1,1.9,6.2,2.6
				l0.9,0.3l2,9.2c0.2,0.7,0.8,1.3,1.6,1.3h18.3c0.8,0,1.4-0.5,1.6-1.3l2-9.2l0.9-0.3c2.1-0.7,4.2-1.6,6.2-2.6l0.8-0.4l8,5.1
				c0.6,0.4,1.5,0.3,2-0.2l13-13c0.5-0.5,0.6-1.4,0.2-2l-5.1-8l0.4-0.8c1-2,1.9-4.1,2.6-6.2l0.3-0.9l9.2-2c0.7-0.2,1.3-0.8,1.3-1.6
				v-18.3c0-0.8-0.5-1.4-1.3-1.6l-9.2-2l-0.3-0.9c-0.7-2.1-1.6-4.2-2.6-6.2l-0.4-0.8l5.1-8c0.4-0.6,0.3-1.5-0.2-2l-13-13
				c-0.5-0.5-1.4-0.6-2-0.2l-8,5.1l-0.8-0.4c-2-1-4.1-1.9-6.2-2.6l-0.9-0.3l-2-9.2c-0.2-0.8-0.8-1.3-1.6-1.3h-18.3
				c-0.8,0-1.4,0.5-1.6,1.3l-2,9.2l-0.9,0.3c-2.1,0.7-4.2,1.6-6.2,2.6l-0.8,0.4l-7.9-5.1c-0.6-0.4-1.5-0.3-2,0.2l-13,13
				c-0.5,0.5-0.6,1.4-0.2,2l5.1,8l-0.4,0.8c-1,2-1.9,4.1-2.6,6.2l-0.3,0.9l-9.2,2c-0.7,0.2-1.3,0.8-1.3,1.6v18.3
				c0,0.8,0.5,1.4,1.3,1.6l9.2,2l0.3,0.9c0.7,2.1,1.6,4.2,2.6,6.2l0.4,0.8l-5.1,8c-0.4,0.6-0.3,1.5,0.2,2l13,13
				c0.5,0.5,1.4,0.6,2,0.2L933.7,275.5z"/>
		</g>
		<g>
			<path class="st0" d="M928.5,236.8c0,14.3,11.6,25.9,25.9,25.9c14.3,0,25.9-11.6,25.9-25.9s-11.6-25.9-25.9-25.9
				C940.1,210.9,928.5,222.5,928.5,236.8z"/>
		</g>
	</g>
	<g>
		<path class="st3" d="M942.6,128.2c0,7.7,6.3,14,14,14s14-6.3,14-14s-6.3-14-14-14S942.6,120.5,942.6,128.2z"/>
	</g>
</g>
<g>
	<g>
		<polygon class="st3" points="898.2,156.8 851.5,156.8 839.1,206.8 780.8,440.8 972,440.8 930.3,280.1 912,209.9 		"/>
		<path class="st4" d="M974,442.4H778.7l71.5-287.3h49.3l32.3,124.6L974,442.4z M782.9,439.2h187L897,158.4h-44.2L782.9,439.2z"/>
	</g>
	<g>
		<polygon class="st0" points="928.7,280.1 822.3,280.3 840.5,206.9 909.4,206.5 		"/>
	</g>
	<g>
		<polygon class="st0" points="941.4,330.7 809.9,331.2 792.6,400.5 959.5,400.9 		"/>
	</g>
	<g>
		<path class="st3" d="M1016,468.3H736.4c0,0-2.8-24.5,16.2-25.1c18.9-0.6,251.2,0,251.2,0S1016,446.6,1016,468.3z"/>
		<path class="st4" d="M1017.7,469.9H734.9l-0.2-1.4c-0.1-0.6-1.5-13.6,5.3-21.3c3-3.5,7.2-5.4,12.4-5.5c18.7-0.5,249,0,251.3,0
			l0.4,0.1c0.5,0.1,13.4,3.9,13.4,26.6V469.9z M737.9,466.7h276.5c-0.5-17.5-9.4-21.3-10.9-21.8c-8.8,0-232.5-0.5-250.9,0
			c-4.3,0.1-7.7,1.6-10.1,4.4C737.9,454.6,737.8,463.3,737.9,466.7z"/>
	</g>
</g>
<g>
	<g>
		<g>
			<path class="st3" d="M280.3,441.6V184.4c0-7.9,5.7-14.3,12.8-14.3h496.1c7.1,0,12.8,6.4,12.8,14.3v257.2H280.3z"/>
		</g>
	</g>
	<g>
		<g>
			<path class="st2" d="M802.2,443.3h-522c-1,0-2-0.7-2-2V184.4c0-8.9,6.7-16,14.5-16h496.1c8.1,0,14.5,7.1,14.5,16v257.2
				C804,442.6,803.2,443.3,802.2,443.3z M282.2,439.6h518V184.4c0-6.9-4.9-12.3-10.8-12.3H293.1c-5.9,0-10.8,5.4-10.8,12.3V439.6z"
				/>
		</g>
	</g>
</g>
<g>
	<g>
		<g>
			<path class="st3" d="M861.6,454.4c-0.2,4.2-2,8.1-4.7,10.8c-3,3-7.1,4.9-11.6,4.9H216.5c-8.9,0-16-6.9-16.5-15.5l0.2-14h661.1
				v13.8H861.6z"/>
		</g>
	</g>
	<g>
		<g>
			<path class="st2" d="M845.1,471.9H216.5c-9.9,0-17.7-7.6-18.2-17.2l0.2-14c0-1,0.7-1.7,2-1.7h661.1c1,0,2,0.7,2,2v14l0,0
				c-0.2,4.4-2.2,8.9-5.4,12.1C854.5,470.2,850,471.9,845.1,471.9z M201.9,442.3l-0.2,12.1c0.5,7.6,6.9,13.8,14.5,13.8h628.6
				c3.9,0,7.6-1.5,10.3-4.2c2.5-2.5,3.9-5.9,4.2-9.6v-12.1L201.9,442.3L201.9,442.3z M861.6,454.4L861.6,454.4L861.6,454.4z"/>
		</g>
	</g>
</g>
<g>
	<g>
		<g>
			<path class="st5" d="M681.4,102.1l38.2,230.8c1,6.4-2.8,12.6-8.5,13.7L490.6,393c-5.7,1.2-11.2-2.9-12.4-9.2l-6.9-36.6
				L681.4,102.1z"/>
		</g>
		<g>
			<path class="st2" d="M488.5,395.1c-2.3,0-4.6-0.7-6.6-2c-3-2-5.1-5.2-5.7-8.9l-7.1-37.5L682.7,97.6l38.9,234.9
				c1.2,7.4-3.3,14.5-10.1,16l-220.6,46.4C490.1,395.1,489.4,395.1,488.5,395.1z M473.3,347.9l6.7,35.7c0.5,2.7,2,5,4.1,6.4
				c1.8,1.2,3.9,1.6,6,1.2l220.5-46.4c4.7-1,7.9-6.1,7-11.5l-37.5-226.7L473.3,347.9z"/>
		</g>
	</g>
	<g>
		<g>
			<path class="st3" d="M615.9,354.5H452.4c-9.4,0-17-8.4-17-18.7V97.1c0-9.5,7-17.3,15.7-17.3h231.1v201.4L615.9,354.5z"/>
		</g>
		<g>
			<path class="st2" d="M615.9,356.5H452.4c-10.4,0-18.9-9.3-18.9-20.7V97.1c0-10.6,7.9-19.3,17.6-19.3h231.1c1.1,0,2,0.9,2,2v201.4
				c0,0.5-0.2,0.9-0.5,1.3l-66.2,73.3C617,356.2,616.5,356.5,615.9,356.5z M451.1,81.7c-7.6,0-13.7,6.9-13.7,15.4v238.7
				c0,9.3,6.7,16.8,15,16.8h162.7l65.2-72.1V81.7H451.1z"/>
		</g>
	</g>
	<g>
		<g>
			<path class="st2" d="M470,134.7c-10.4,0-18.7-8.4-18.7-18.7V79.3c0-10.4,8.4-18.7,18.7-18.7s18.7,8.4,18.7,18.7c0,1.1-0.9,2-2,2
				c-1.1,0-2-0.9-2-2c0-8.2-6.7-14.8-14.8-14.8s-14.8,6.7-14.8,14.8V116c0,8.2,6.7,14.8,14.8,14.8s14.8-6.7,14.8-14.8V95
				c0-1.1,0.9-2,2-2c1.1,0,2,0.9,2,2v21C488.8,126.4,480.3,134.7,470,134.7z"/>
		</g>
	</g>
	<g>
		<g>
			<path class="st2" d="M614.9,356.5c-1.1,0-2-0.9-2-2v-72.4c0-3.2,2.6-5.8,5.8-5.8h63.4c1.1,0,2,0.9,2,2s-0.9,2-2,2h-63.4
				c-1,0-1.9,0.8-1.9,1.9v72.4C616.9,355.6,616,356.5,614.9,356.5z"/>
		</g>
	</g>
	<g>
		<g>
			<path class="st2" d="M632.5,203.3c-0.4,0-0.8-0.2-1.2-0.5l-26.1-27.1c-0.6-0.6-0.6-1.7,0-2.3c0.6-0.6,1.7-0.6,2.3,0l26.1,27.1
				c0.6,0.6,0.6,1.7,0,2.3C633.3,203.2,632.9,203.3,632.5,203.3z"/>
		</g>
		<g>
			<path class="st2" d="M606.4,203.3c-0.4,0-0.8-0.1-1.1-0.5c-0.6-0.6-0.7-1.6,0-2.3l26.1-27.1c0.6-0.6,1.6-0.7,2.3,0
				c0.6,0.6,0.7,1.6,0,2.3l-26.1,27.1C607.3,203.1,606.8,203.3,606.4,203.3z"/>
		</g>
	</g>
	<g>
		<g>
			<path class="st2" d="M516.2,204.6c-0.4,0-0.8-0.2-1.2-0.5L488.9,177c-0.6-0.6-0.6-1.7,0-2.3c0.6-0.6,1.7-0.6,2.3,0l26.1,27.1
				c0.6,0.6,0.6,1.7,0,2.3C517,204.4,516.6,204.6,516.2,204.6z"/>
		</g>
		<g>
			<path class="st2" d="M490.1,204.6c-0.4,0-0.8-0.1-1.1-0.5c-0.6-0.6-0.7-1.6,0-2.3l26.1-27.1c0.6-0.6,1.6-0.7,2.3,0
				c0.6,0.6,0.7,1.6,0,2.3l-26.1,27.1C490.9,204.4,490.5,204.6,490.1,204.6z"/>
		</g>
	</g>
	<g>
		<path class="st2" d="M586.2,260.1h-45.3c0.9-11.7,10.7-20.9,22.7-20.9S585.3,248.4,586.2,260.1z"/>
	</g>
</g>
</svg>
